<svg width="64" height="64" viewBox="0 0 64 64" fill="none" xmlns="http://www.w3.org/2000/svg">
<path fill-rule="evenodd" clip-rule="evenodd" d="M38.1454 8.15175L32.9527 2.69442C32.448 2.16442 31.5507 2.16442 31.046 2.69442L25.8534 8.15175C25.7667 8.24309 25.5214 8.30842 25.4007 8.27375L18.176 6.14375C17.8247 6.03975 17.4587 6.08309 17.1447 6.26442C16.8307 6.44575 16.6107 6.74175 16.5247 7.09709L14.7574 14.4178C14.7274 14.5398 14.548 14.7204 14.4254 14.7491L7.10271 16.5184C6.74671 16.6044 6.45137 16.8251 6.27004 17.1384C6.08937 17.4531 6.04604 17.8184 6.15004 18.1691L8.28004 25.3951C8.31537 25.5151 8.24937 25.7611 8.15804 25.8471L2.70071 31.0398C2.43604 31.2924 2.29004 31.6311 2.29004 31.9931C2.29004 32.3558 2.43604 32.6938 2.70071 32.9464L8.15871 38.1404C8.24937 38.2271 8.31537 38.4724 8.28004 38.5931L6.15004 45.8171C6.04604 46.1678 6.08937 46.5338 6.27004 46.8478C6.45137 47.1618 6.74671 47.3818 7.10271 47.4684L14.4254 49.2371C14.548 49.2664 14.7274 49.4464 14.7567 49.5684L16.5247 56.8911C16.6107 57.2464 16.8307 57.5418 17.1447 57.7231C17.4587 57.9044 17.8247 57.9478 18.1754 57.8438L25.4007 55.7144C25.5214 55.6791 25.7667 55.7444 25.8534 55.8358L31.046 61.2918C31.2987 61.5571 31.6367 61.7031 31.9994 61.7031C32.362 61.7031 32.7007 61.5571 32.9527 61.2918L38.1454 55.8358C38.232 55.7444 38.4774 55.6798 38.598 55.7144L45.8234 57.8438C46.174 57.9478 46.54 57.9044 46.854 57.7231C47.168 57.5418 47.3887 57.2464 47.474 56.8911L49.2434 49.5684C49.2727 49.4464 49.4527 49.2664 49.5747 49.2371L56.8974 47.4684C57.2527 47.3818 57.5487 47.1618 57.73 46.8478C57.9107 46.5338 57.9534 46.1678 57.85 45.8171L55.72 38.5931C55.6847 38.4724 55.7507 38.2264 55.8414 38.1398L61.2987 32.9464C61.5634 32.6938 61.7094 32.3558 61.7094 31.9931C61.7094 31.6311 61.5634 31.2924 61.298 31.0398L55.8414 25.8478C55.7507 25.7611 55.6847 25.5151 55.72 25.3944L57.85 18.1691C57.9534 17.8184 57.9107 17.4524 57.73 17.1384C57.5487 16.8244 57.2527 16.6044 56.8974 16.5184L49.5747 14.7491C49.4527 14.7204 49.2727 14.5398 49.2434 14.4178L47.4747 7.09709C47.3887 6.74175 47.168 6.44575 46.854 6.26442C46.54 6.08309 46.174 6.03975 45.8234 6.14375L38.598 8.27375C38.4774 8.30842 38.232 8.24309 38.1454 8.15175ZM40.157 29.6154L40.3808 29.6126L40.6141 29.6156C42.3061 29.6606 43.5879 30.2003 44.4592 31.2357L44.5708 31.3739L44.6778 31.5178C45.4815 32.6441 45.9004 34.2946 45.9339 36.4687L45.9361 36.7552L45.9337 37.0515C45.8984 39.2011 45.4747 40.8421 44.663 41.9753L44.5548 42.1206L44.437 42.2658C43.5555 43.3083 42.2766 43.8521 40.6019 43.8957L40.3808 43.8986L40.1594 43.8957C38.4069 43.8501 37.0893 43.2578 36.2054 42.1206C35.3222 40.982 34.863 39.2886 34.8276 37.0393L34.8254 36.7552L34.8276 36.4687C34.861 34.2946 35.2788 32.6441 36.083 31.5178L36.1901 31.3739L36.3065 31.2299C37.1789 30.1963 38.4622 29.6585 40.157 29.6154ZM39.2374 20.5012H35.4281L24.7614 43.4846H28.5714L39.2374 20.5012ZM41.6984 33.7551C41.4124 33.1311 40.973 32.8184 40.3804 32.8184C39.7877 32.8184 39.3484 33.1311 39.063 33.7551C38.7777 34.3791 38.6344 35.3791 38.6344 36.7551C38.6344 38.1098 38.7777 39.0991 39.063 39.7231C39.3484 40.3478 39.7877 40.6598 40.3804 40.6598C40.973 40.6598 41.4124 40.3478 41.6984 39.7231C41.9837 39.0991 42.1264 38.1098 42.1264 36.7551C42.1264 35.3791 41.9837 34.3791 41.6984 33.7551ZM23.6181 20.0886L23.3969 20.0914C21.7217 20.1349 20.4433 20.6782 19.5618 21.7212L19.4441 21.8666L19.3358 22.0116C18.5243 23.1439 18.1011 24.7859 18.0658 26.935L18.0634 27.2312L18.0656 27.5178C18.1005 29.7864 18.5539 31.4842 19.4281 32.6126C20.3017 33.7402 21.6232 34.326 23.3944 34.3711L23.6181 34.3739L23.8418 34.3711C25.5361 34.328 26.8194 33.7901 27.6923 32.7566L27.8088 32.6126L27.9158 32.4685C28.7195 31.3418 29.1384 29.6918 29.1719 27.5178L29.1741 27.2312L29.1719 26.9472C29.1381 24.7962 28.7158 23.1522 27.9062 22.0181L27.7934 21.8666L27.6807 21.7272C26.8007 20.6823 25.5232 20.1371 23.8489 20.0917L23.6181 20.0886ZM24.936 24.2626C24.6506 23.6386 24.2113 23.3266 23.6186 23.3266C23.0253 23.3266 22.5813 23.6386 22.2853 24.2626C21.9886 24.8879 21.8406 25.8772 21.8406 27.2312C21.8406 28.6072 21.9886 29.6072 22.2853 30.2312C22.5813 30.8552 23.0253 31.1679 23.6186 31.1679C24.2113 31.1679 24.6506 30.8552 24.936 30.2312C25.2213 29.6072 25.3646 28.6072 25.3646 27.2312C25.3646 25.8772 25.2213 24.8879 24.936 24.2626Z" fill="black"/>
</svg>
