<svg width="64" height="64" viewBox="0 0 64 64" fill="none" xmlns="http://www.w3.org/2000/svg">
<path fill-rule="evenodd" clip-rule="evenodd" d="M51.0498 10.8789C50.9728 9.28913 49.6614 8.02357 48.0533 8.02H7L6.85956 8.02353C5.27706 8.09979 4.01419 9.39956 4 11V38.0533L4.00357 38.1944C4.08055 39.7842 5.39196 41.0498 7 41.0533H36.8067V53L36.8102 53.1411C36.8872 54.7309 38.1986 55.9964 39.8067 56H57L57.1411 55.9964C58.7309 55.9194 59.9964 54.608 60 53V20.6667L59.9955 20.5263C59.9087 18.9443 58.6005 17.6902 57 17.6867H51.0533V11.02L51.0498 10.8789ZM40.14 21.02H56.6667V52.6667H40.14V21.02ZM50 24.02C50 24.7564 49.403 25.3533 48.6667 25.3533C47.9303 25.3533 47.3333 24.7564 47.3333 24.02C47.3333 23.2836 47.9303 22.6867 48.6667 22.6867C49.403 22.6867 50 23.2836 50 24.02ZM7.33333 11.3333H47.72V17.6867H39.8067L39.6662 17.6902C38.0837 17.7665 36.8209 19.0662 36.8067 20.6667V37.72H7.33333V11.3333Z" fill="black"/>
</svg>
