<svg width="12" height="12" viewBox="0 0 12 12" fill="none" xmlns="http://www.w3.org/2000/svg">
<path fill-rule="evenodd" clip-rule="evenodd" d="M10.568 3.125H11C11.2413 3.125 11.4375 3.32125 11.4375 3.5625V6.125V8.4375V11C11.4375 11.2413 11.2413 11.4375 11 11.4375H2.06687C1.23737 11.4375 0.5625 10.6426 0.5625 9.6655V2.15625C0.5625 1.2775 1.25325 0.5625 2.10238 0.5625H10.1305C10.3717 0.5625 10.568 0.75875 10.568 1V3.125ZM2.10238 1.1875H9.943V3.125H2.10238C1.59787 3.125 1.1875 2.69037 1.1875 2.15625C1.1875 1.62213 1.59787 1.1875 2.10238 1.1875ZM1.1875 9.6655C1.1875 10.298 1.582 10.8125 2.06687 10.8125H10.8125V8.875H8.5625C7.68363 8.875 6.96875 8.16 6.96875 7.28125C6.96875 6.4025 7.68363 5.6875 8.5625 5.6875H10.8125V3.75H10.1305H2.10238C1.75962 3.75 1.44362 3.63213 1.1875 3.43513V9.6655ZM8.5625 8.25H10.8125V6.3125H8.5625C8.02838 6.3125 7.59375 6.74713 7.59375 7.28125C7.59375 7.81537 8.02838 8.25 8.5625 8.25Z" fill="black"/>
</svg>
