<svg width="64" height="64" viewBox="0 0 64 64" fill="none" xmlns="http://www.w3.org/2000/svg">
<path fill-rule="evenodd" clip-rule="evenodd" d="M32.009 1.33333C48.945 1.33799 62.6717 15.0733 62.6663 32.0087C62.6617 48.7733 49.2056 62.3919 32.5073 62.6626L31.991 62.6667C15.055 62.662 1.32834 48.928 1.33301 31.9913C1.33829 15.228 14.7945 1.60816 31.4927 1.33744L32.009 1.33333ZM18.8688 34.663C19.2337 40.8226 20.8568 46.6371 23.4462 50.9227C25.1759 53.7852 27.2283 55.7901 29.3266 56.7293L29.3323 34.666L18.8688 34.663ZM34.6603 56.728L34.6657 34.6673L45.1336 34.6708C44.4786 46.1287 39.6867 54.4774 34.6603 56.728ZM6.80358 34.6597C7.40096 40.4185 9.93244 45.7564 14.0817 49.908C15.5458 51.3731 17.1578 52.6368 18.8839 53.6852C15.8845 48.723 13.909 42.0685 13.5253 34.662L6.80358 34.6597ZM45.1237 53.6596C48.1147 48.7029 50.0861 42.0626 50.473 34.6724L57.1929 34.6747C56.3453 42.7171 51.7178 49.6504 45.1237 53.6596ZM45.1161 10.3148C48.1164 15.2808 50.0909 21.9339 50.4745 29.3386L57.1961 29.341C56.5993 23.582 54.0677 18.2443 49.9183 14.092C48.5669 12.7396 47.0894 11.5588 45.5124 10.5605L45.1161 10.3148ZM34.6677 29.334L34.6738 7.27101C36.7719 8.21033 38.824 10.2151 40.5535 13.0773L40.7408 13.3928C43.2218 17.6462 44.7752 23.3276 45.1311 29.3376L34.6677 29.334ZM29.3406 7.27114C24.3143 9.52049 19.5216 17.8702 18.8662 29.3299L29.3343 29.3327L29.3406 7.27114ZM18.6679 10.4665L18.8775 10.3384L18.6796 10.6713C15.7989 15.591 13.9054 22.1011 13.5268 29.3282L6.80649 29.326C7.64538 21.3674 12.1854 14.4948 18.6679 10.4665Z" fill="black"/>
</svg>
