<svg width="40" height="40" viewBox="0 0 40 40" fill="none" xmlns="http://www.w3.org/2000/svg">
<path fill-rule="evenodd" clip-rule="evenodd" d="M28.7503 0.625H11.2503C9.75455 0.625 8.54199 1.83756 8.54199 3.33333V36.6667C8.54199 38.1624 9.75455 39.375 11.2503 39.375H28.7503C30.2461 39.375 31.4587 38.1624 31.4587 36.6667V3.33333C31.4587 1.83756 30.2461 0.625 28.7503 0.625ZM11.2503 1.875H28.7503C29.5557 1.875 30.2087 2.52792 30.2087 3.33333V36.6667C30.2087 37.4721 29.5557 38.125 28.7503 38.125H11.2503C10.4449 38.125 9.79199 37.4721 9.79199 36.6667V3.33333C9.79199 2.52792 10.4449 1.875 11.2503 1.875ZM20.0003 5.83333C20.5756 5.83333 21.042 5.36696 21.042 4.79167C21.042 4.21637 20.5756 3.75 20.0003 3.75C19.425 3.75 18.9587 4.21637 18.9587 4.79167C18.9587 5.36696 19.425 5.83333 20.0003 5.83333Z" fill="black"/>
</svg>
