<svg width="12" height="12" viewBox="0 0 12 12" fill="none" xmlns="http://www.w3.org/2000/svg">
<path fill-rule="evenodd" clip-rule="evenodd" d="M10.9148 3.99225L11.6888 8.01463C11.7374 8.2675 11.6769 8.5195 11.5226 8.70625C11.3685 8.893 11.1324 9 10.875 9H10.0173C9.925 9.68687 9.33675 10.2188 8.62525 10.2188C7.9135 10.2188 7.325 9.68687 7.23275 9H4.26725C4.17513 9.68687 3.58663 10.2188 2.875 10.2188C2.16325 10.2188 1.57488 9.68687 1.48275 9H0.625C0.38375 9 0.1875 8.80375 0.1875 8.5625V2.1875C0.1875 1.94625 0.38375 1.75 0.625 1.75H7.375C7.61625 1.75 7.8125 1.94625 7.8125 2.1875V3.125H9.86475C10.3599 3.125 10.8211 3.506 10.9148 3.99225ZM4.21062 8.375H7.1875V2.375H0.8125V8.375H1.53938C1.72388 7.81337 2.25238 7.40625 2.875 7.40625C3.49762 7.40625 4.02612 7.81337 4.21062 8.375ZM10.875 8.375C10.9464 8.375 11.0051 8.35125 11.0408 8.30825C11.0764 8.26512 11.0885 8.20288 11.075 8.13275L10.7488 6.4375H9.122C8.91687 6.4375 8.75 6.26925 8.75 6.0625V4.6875C8.75 4.48075 8.91687 4.3125 9.122 4.3125H10.3399L10.301 4.11037C10.264 3.91838 10.0601 3.75 9.86475 3.75H7.8125V7.66687C8.04225 7.5035 8.32238 7.40625 8.62525 7.40625C9.24775 7.40625 9.77638 7.81337 9.96075 8.375H10.875ZM8.62525 9.65625C9.02575 9.65625 9.36137 9.37525 9.447 9C9.46075 8.9395 9.46875 8.87687 9.46875 8.81225C9.46875 8.65212 9.423 8.50275 9.34525 8.375C9.197 8.132 8.93013 7.96875 8.62525 7.96875C8.32012 7.96875 8.05312 8.132 7.90487 8.375C7.86475 8.44075 7.8335 8.51213 7.8125 8.588C7.79262 8.65963 7.78125 8.7345 7.78125 8.81225C7.78125 8.87687 7.78925 8.9395 7.803 9C7.88875 9.37525 8.22437 9.65625 8.62525 9.65625ZM10.6526 5.9375H9.25V4.8125H10.4361L10.6526 5.9375ZM3.697 9C3.61137 9.37525 3.27575 9.65625 2.875 9.65625C2.47425 9.65625 2.1385 9.37525 2.053 9C2.03925 8.93962 2.03125 8.877 2.03125 8.8125C2.03125 8.65225 2.077 8.50275 2.15487 8.375C2.30312 8.13188 2.57 7.96875 2.875 7.96875C3.18 7.96875 3.44687 8.13188 3.59512 8.375C3.673 8.50275 3.71875 8.65225 3.71875 8.8125C3.71875 8.877 3.71075 8.93962 3.697 9Z" fill="black"/>
</svg>
