<svg width="40" height="40" viewBox="0 0 40 40" fill="none" xmlns="http://www.w3.org/2000/svg">
<path fill-rule="evenodd" clip-rule="evenodd" d="M36.667 6.45834C37.8981 6.45834 38.9083 7.43854 38.9568 8.65811L38.9587 8.75001V31.25C38.9587 32.4811 37.9785 33.4913 36.7589 33.5399L36.667 33.5417H3.33366C2.10259 33.5417 1.09237 32.5615 1.04382 31.3419L1.04199 31.25V8.75001C1.04199 7.51894 2.02219 6.50872 3.24175 6.46017L3.33366 6.45834H36.667ZM36.667 7.70834H3.33366C2.78503 7.70834 2.32977 8.14166 2.29423 8.68194L2.29199 8.75001V31.25C2.29199 31.7986 2.72531 32.2539 3.26559 32.2894L3.33366 32.2917H36.667C37.2156 32.2917 37.6709 31.8584 37.7064 31.3181L37.7087 31.25V8.75001C37.7087 8.20138 37.2753 7.74612 36.7351 7.71058L36.667 7.70834ZM35.6235 19.9937C35.6235 19.4183 35.1572 18.9521 34.5818 18.9521C34.0064 18.9521 33.5402 19.4183 33.5402 19.9937C33.5402 20.5691 34.0064 21.0354 34.5818 21.0354C35.1572 21.0354 35.6235 20.5691 35.6235 19.9937Z" fill="black"/>
</svg>
