<svg width="40" height="40" viewBox="0 0 40 40" fill="none" xmlns="http://www.w3.org/2000/svg">
<path fill-rule="evenodd" clip-rule="evenodd" d="M30.2316 1.59831C30.1963 1.05571 29.7436 0.625031 29.1922 0.625031H10.8147L10.7463 0.627251C10.2037 0.662588 9.77303 1.11533 9.77303 1.6667L9.77292 6.24234L9.7714 6.66152L9.75927 6.87274C9.68987 7.92545 9.4459 8.59703 8.92002 9.37952C8.91126 9.39256 8.89917 9.40995 8.88412 9.43123L7.80207 10.9158C5.91129 13.4506 4.79199 16.5946 4.79199 20.0001C4.79199 23.3949 5.90426 26.5298 7.78472 29.0601L8.90387 30.5973L8.99654 30.7371C9.49469 31.51 9.7162 32.1966 9.76837 33.2878L9.7722 33.3639L9.77308 38.3333L9.7753 38.4017C9.81063 38.9443 10.2634 39.375 10.8147 39.375H29.1922L29.2606 39.3728C29.8032 39.3374 30.2339 38.8847 30.2339 38.3333L30.234 33.7647L30.2359 33.3415L30.248 33.1284C30.3173 32.075 30.5613 31.4032 31.0873 30.6204C31.1413 30.54 31.3207 30.2955 31.5404 29.996L31.5405 29.9958L31.5405 29.9958L31.5408 29.9954L31.5412 29.995C31.8318 29.5987 32.1929 29.1065 32.4277 28.7707L32.6321 28.4724C34.2592 26.0512 35.2087 23.1365 35.2087 20.0001C35.2087 16.7923 34.2155 13.8165 32.5187 11.3613C32.295 11.0331 31.8705 10.4544 31.5386 10.002L31.5386 10.0019L31.5385 10.0018L31.5383 10.0016L31.5382 10.0014C31.3192 9.7029 31.1406 9.45947 31.0869 9.37954L31.0102 9.26295C30.5123 8.49036 30.291 7.80412 30.239 6.7132L30.2352 6.63649L30.2339 1.6667L30.2316 1.59831ZM28.9822 32.2741L29.1041 32.1822C29.0457 32.5036 29.0085 32.8484 28.9905 33.2282L28.9868 33.3011L28.9856 33.3939L28.9837 38.1247H11.0228L11.0228 33.6786L11.0214 33.3265L11.0169 33.2265L11.0068 33.0494C10.9866 32.7418 10.9529 32.4571 10.904 32.1894C13.4408 34.0856 16.5894 35.2084 20.0003 35.2084C23.3601 35.2084 26.4653 34.119 28.9822 32.2741ZM20.0003 6.04178C15.4167 6.04178 11.3492 8.25105 8.8044 11.6628L8.62391 11.9169L8.48846 12.1136L8.48383 12.1107C6.9434 14.3551 6.04199 17.0723 6.04199 20.0001C6.04199 22.9281 6.94351 25.6455 8.48411 27.8899L8.48847 27.8868L8.61659 28.0729C8.67041 28.1496 8.73157 28.2355 8.79747 28.3273C11.3417 31.7451 15.4125 33.9585 20.0003 33.9585C27.7093 33.9585 33.9587 27.7091 33.9587 20.0001C33.9587 17.1572 33.1088 14.5128 31.6492 12.3071L31.4788 12.0556C28.9588 8.42155 24.7575 6.04178 20.0003 6.04178ZM32.6045 20.0001C32.6045 13.0389 26.9615 7.39595 20.0003 7.39595C13.0392 7.39595 7.39616 13.0389 7.39616 20.0001C7.39616 26.9614 13.0392 32.6043 20.0003 32.6043C26.9615 32.6043 32.6045 26.9614 32.6045 20.0001ZM20.0003 8.43761C13.6145 8.43761 8.43783 13.6142 8.43783 20.0001C8.43783 26.3861 13.6145 31.5626 20.0003 31.5626C26.3862 31.5626 31.5628 26.3861 31.5628 20.0001C31.5628 13.6142 26.3862 8.43761 20.0003 8.43761ZM11.0228 1.8747H28.9837L28.984 6.23839L28.986 6.67654L28.9905 6.77399L29.0005 6.95112C29.0208 7.26085 29.0547 7.54727 29.1042 7.81648C26.566 5.91685 23.4146 4.79178 20.0003 4.79178C16.5893 4.79178 13.4405 5.91476 10.9043 7.81178C10.9621 7.4924 10.9989 7.14981 11.0169 6.7728L11.0206 6.69857L11.0228 1.8747Z" fill="black"/>
</svg>
